# xmcd
#
# Track frame offsets: 
#        150
#        10414
#        13686
#        21535
#        26384
#        41239
#        42367
#        49146
#        62753
#        80882
#        87841
#        110993
#        116761
#        122911
#        126475
#        132539
#        146957
#        160950
#        165745
#        181037
#        193198
#        205499
#        212334
#        214364
#        219366
#        231905
#        242971
#        253014
#        260813
#
# Disc length: 3685 seconds
#
# Revision: 0
# Processed by: cddbd v1.5.2PL0 Copyright (c) Steve Scherf et al.
# Submitted via: ExactAudioCopy v0.95b3
#
DISCID=d00e631d
DTITLE=Led Zeppelin  - Studio Sessions Ultimate [Disc 6] 
DYEAR=1900
DGENRE=
TTITLE0=Love Me
TTITLE1=Frankfurt Special
TTITLE2=King Creole
TTITLE3=Love Me
TTITLE4=Sugar Baby
TTITLE5=Sugar Baby
TTITLE6=Sugar Baby
TTITLE7=The Wanton Song
TTITLE8=The Rover
TTITLE9=The Rover
TTITLE10=The Rover
TTITLE11=The Rover
TTITLE12=Night Flight
TTITLE13=Night Flight
TTITLE14=Night Flight
TTITLE15=Night Flight
TTITLE16=School Days
TTITLE17=Nadine
TTITLE18=Around And Around
TTITLE19=Move On Down The Line
TTITLE20=Love Me Like A Hurricane
TTITLE21=Move It
TTITLE22=Move It
TTITLE23=Dynamite
TTITLE24=Shakin All Over
TTITLE25=Hungry For Love
TTITLE26=I'll Never Get Over You
TTITLE27=Reeling And Rocking
TTITLE28=Ending The Soundcheck
EXTD=
EXTT0=
EXTT1=
EXTT2=
EXTT3=
EXTT4=
EXTT5=
EXTT6=
EXTT7=
EXTT8=
EXTT9=
EXTT10=
EXTT11=
EXTT12=
EXTT13=
EXTT14=
EXTT15=
EXTT16=
EXTT17=
EXTT18=
EXTT19=
EXTT20=
EXTT21=
EXTT22=
EXTT23=
EXTT24=
EXTT25=
EXTT26=
EXTT27=
EXTT28=
PLAYORDER=
